<svg width="32" height="32" viewBox="0 0 32 32" fill="none" xmlns="http://www.w3.org/2000/svg">
<path d="M30.875 12.4168C30.7315 11.9718 30.4678 11.5752 30.1129 11.2708C29.758 10.9665 29.3257 10.7662 28.8641 10.6923L21.6198 9.51501L18.2615 2.98914C18.0476 2.57369 17.7234 2.22519 17.3244 1.98189C16.9255 1.73858 16.4672 1.60986 16 1.60986C15.5327 1.60986 15.0744 1.73858 14.6755 1.98189C14.2765 2.22519 13.9523 2.57369 13.7384 2.98914L10.3801 9.51501L3.13596 10.6923C2.67475 10.7674 2.24313 10.968 1.88846 11.2723C1.53378 11.5765 1.26976 11.9725 1.12536 12.417C0.980962 12.8614 0.961761 13.337 1.06987 13.7915C1.17798 14.2461 1.40921 14.6622 1.73821 14.994L6.90696 20.2045L5.78821 27.458C5.71642 27.9199 5.77344 28.3928 5.95299 28.8245C6.13253 29.2562 6.42766 29.63 6.80591 29.9048C7.18415 30.1796 7.63086 30.3448 8.0969 30.3821C8.56294 30.4195 9.03026 30.3276 9.44746 30.1166L16 26.811L22.5526 30.1166C22.9699 30.3272 23.4371 30.4187 23.9029 30.3812C24.3688 30.3436 24.8153 30.1784 25.1934 29.9037C25.5715 29.629 25.8666 29.2554 26.0463 28.8239C26.226 28.3925 26.2833 27.9198 26.2119 27.458L25.0931 20.2045L30.2619 14.994C30.5919 14.6628 30.8239 14.2468 30.9321 13.7919C31.0403 13.3371 31.0205 12.8611 30.875 12.4168V12.4168ZM28.8418 13.5856L22.9625 19.5124L24.2352 27.763C24.251 27.8618 24.2391 27.9631 24.2009 28.0555C24.1626 28.148 24.0995 28.2281 24.0186 28.2869C23.9376 28.3457 23.842 28.381 23.7422 28.3888C23.6425 28.3965 23.5425 28.3766 23.4534 28.331L16 24.5709L8.54646 28.3311C8.45736 28.3767 8.35739 28.3967 8.25764 28.3889C8.15788 28.3811 8.06222 28.3458 7.98127 28.287C7.90032 28.2282 7.83723 28.1481 7.79899 28.0557C7.76076 27.9632 7.74887 27.862 7.76465 27.7631L9.03746 19.5124L3.15815 13.5855C3.08793 13.5146 3.0386 13.4257 3.01555 13.3286C2.9925 13.2315 2.99662 13.1299 3.02746 13.035C3.0583 12.9401 3.11467 12.8555 3.19039 12.7904C3.26612 12.7254 3.35828 12.6825 3.45677 12.6664L11.6968 11.3273L15.5168 3.90433C15.5624 3.81554 15.6317 3.74105 15.7169 3.68904C15.8022 3.63703 15.9001 3.60952 16 3.60952C16.0998 3.60952 16.1977 3.63703 16.283 3.68904C16.3682 3.74105 16.4375 3.81554 16.4831 3.90433L20.3031 11.3273L28.5431 12.6664C28.6416 12.6825 28.7338 12.7254 28.8095 12.7904C28.8852 12.8555 28.9416 12.9401 28.9725 13.035C29.0033 13.1299 29.0074 13.2315 28.9844 13.3286C28.9613 13.4257 28.912 13.5146 28.8418 13.5855L28.8418 13.5856Z" fill="#EBEBEB"/>
</svg>
