<svg width="20" height="20" viewBox="0 0 20 20" fill="none" xmlns="http://www.w3.org/2000/svg">
<path fill-rule="evenodd" clip-rule="evenodd" d="M9.72057 1.10749C9.89652 1.01951 10.1036 1.01951 10.2796 1.10749L14.4428 3.18907C14.4453 3.19034 14.4479 3.19163 14.4505 3.19294L18.6094 5.27238C18.7089 5.32127 18.7961 5.39685 18.8591 5.49515C18.8871 5.53875 18.9097 5.5858 18.9263 5.63526C18.949 5.70316 18.9594 5.77297 18.9584 5.84188V14.1665C18.9584 14.4032 18.8247 14.6197 18.6129 14.7255L10.2885 18.8877C10.214 18.9266 10.1306 18.9508 10.0423 18.9567C10.0223 18.9581 10.0022 18.9585 9.98212 18.9579C9.97193 18.9576 9.96174 18.9571 9.95157 18.9563C9.86439 18.9496 9.7822 18.925 9.70869 18.8862L1.38723 14.7255C1.17549 14.6197 1.04174 14.4032 1.04174 14.1665V5.84872C1.03919 5.74963 1.06023 5.64849 1.10765 5.55365C1.17209 5.42478 1.27504 5.3279 1.39557 5.26998L9.72057 1.10749ZM12.7692 3.74981L10.0001 2.36528L3.06426 5.83318L5.83334 7.21772L12.7692 3.74981ZM7.23088 7.91649L14.1667 4.44859L16.9358 5.83315L10 9.30106L7.23088 7.91649ZM5.54732 8.47225C5.55135 8.47433 5.55541 8.47635 5.55948 8.47834L9.375 10.3861V17.3219L2.29174 13.7802V6.84447L5.54732 8.47225ZM10.625 17.3219V10.3861L17.7084 6.8444V13.7802L10.625 17.3219Z" fill="#3A342E"/>
</svg>
