<svg width="32" height="32" viewBox="0 0 32 32" fill="none" xmlns="http://www.w3.org/2000/svg">
<path fill-rule="evenodd" clip-rule="evenodd" d="M3.58579 10.5858C3.96086 10.2107 4.46957 10 5 10H27C27.5304 10 28.0391 10.2107 28.4142 10.5858C28.7893 10.9609 29 11.4696 29 12V25.5781C29 28.0495 26.9128 30 24.5 30H7.5C5.05772 30 3 27.9423 3 25.5V12C3 11.4696 3.21071 10.9609 3.58579 10.5858ZM27 12L5 12L5 25.5C5 26.8377 6.16228 28 7.5 28H24.5C25.8672 28 27 26.8868 27 25.5781V12Z" fill="#EBEBEB"/>
<path fill-rule="evenodd" clip-rule="evenodd" d="M16 4C14.6739 4 13.4021 4.52678 12.4645 5.46447C11.5268 6.40215 11 7.67392 11 9V11C11 11.5523 10.5523 12 10 12C9.44772 12 9 11.5523 9 11V9C9 7.14348 9.7375 5.36301 11.0503 4.05025C12.363 2.7375 14.1435 2 16 2C17.8565 2 19.637 2.7375 20.9497 4.05025C22.2625 5.36301 23 7.14349 23 9V11C23 11.5523 22.5523 12 22 12C21.4477 12 21 11.5523 21 11V9C21 7.67392 20.4732 6.40215 19.5355 5.46447C18.5979 4.52678 17.3261 4 16 4Z" fill="#EBEBEB"/>
<path fill-rule="evenodd" clip-rule="evenodd" d="M10 13C10.5523 13 11 13.4477 11 14V15C11 16.3261 11.5268 17.5979 12.4645 18.5355C13.4021 19.4732 14.6739 20 16 20C17.3261 20 18.5979 19.4732 19.5355 18.5355C20.4732 17.5979 21 16.3261 21 15V14C21 13.4477 21.4477 13 22 13C22.5523 13 23 13.4477 23 14V15C23 16.8565 22.2625 18.637 20.9497 19.9497C19.637 21.2625 17.8565 22 16 22C14.1435 22 12.363 21.2625 11.0503 19.9497C9.7375 18.637 9 16.8565 9 15V14C9 13.4477 9.44772 13 10 13Z" fill="#EBEBEB"/>
</svg>
