<svg width="45" height="45" viewBox="0 0 45 45" fill="none" xmlns="http://www.w3.org/2000/svg">
<path fill-rule="evenodd" clip-rule="evenodd" d="M21.0251 15.4289L27.3891 21.7928C27.7796 22.1834 27.7796 22.8165 27.3891 23.2071L21.0251 29.571C20.6346 29.9615 20.0014 29.9615 19.6109 29.571C19.2204 29.1805 19.2204 28.5473 19.6109 28.1568L24.682 23.0857L24.682 21.9142L19.6109 16.8431C19.2204 16.4526 19.2204 15.8194 19.6109 15.4289C20.0014 15.0384 20.6346 15.0384 21.0251 15.4289Z" fill="#BCAE9B"/>
<path d="M22.5 44C10.6259 44 1 34.3741 1 22.5H-1C-1 35.4787 9.52131 46 22.5 46V44ZM44 22.5C44 34.3741 34.3741 44 22.5 44V46C35.4787 46 46 35.4787 46 22.5H44ZM22.5 1C34.3741 1 44 10.6259 44 22.5H46C46 9.52131 35.4787 -1 22.5 -1V1ZM22.5 -1C9.52131 -1 -1 9.52131 -1 22.5H1C1 10.6259 10.6259 1 22.5 1V-1Z" fill="#BCAE9B"/>
</svg>
